<svg xmlns="http://www.w3.org/2000/svg" width="160" height="70" viewBox="0 0 160 70">
    <g fill="none" fill-rule="evenodd">
        <path fill="#FF0244" d="M151.535 43.504L151.535 30.296 136.556 30.296 136.644 43.504 124.962 43.504 142.353 6.834 126.834 6.834 112.046 37.21 108.287 44.927 108.287 55.902 136.556 55.902 136.556 69.465 151.535 69.465 151.535 55.902 159.562 55.902 159.562 43.504z"/>
        <path fill="#FF0244" d="M116.802 55.902c.307-3.395-.7-5.827-.935-6.34-.056 2.154-.453 4.268-1.192 6.34h-6.388V44.927l3.758-7.717c1.068 1.357 2.17 3.15 2.65 4.835.11.298.21.599.305.9l.011.038c.166.546.312 1.098.428 1.65.003.008.003.018.007.025.01.057.021.11.036.166.032.164.068.328.091.493.032.163.057.33.086.492l.01.089c.004.013.004.028.007.042.029.19.053.382.075.573.003.011.003.022.003.036.004.007.004.014.004.02v-.013s3.17 3.118 3.192 9.346h-2.148zM34.063 6.834L16.672 43.503 28.355 43.503 28.268 30.297 43.248 30.297 43.248 43.503 51.272 43.503 51.272 55.904 43.248 55.904 43.248 69.466 28.268 69.466 28.268 55.904 0 55.904 0 44.927 18.545 6.834zM70.677 40.366c-.095-1.685-.138-3.501-.138-5.462 0-15.83 2.85-22.322 9.828-22.322 6.178 0 9.105 5.236 9.636 17.761.064 1.424.092 2.943.092 4.56 0 15.727-2.845 22.315-9.728 22.315-6.108 0-9.052-5.045-9.69-16.852M80.367 0C62.874 0 53.344 12.39 53.344 34.904c0 7.253.991 13.466 2.92 18.557C60.316 64.164 68.512 69.9 80.367 69.9c6.674 0 12.205-1.859 16.484-5.434.743-.62 1.447-1.293 2.112-2.019.655-.71 1.275-1.468 1.855-2.28.283-.392.556-.796.817-1.214 3.585-5.643 5.525-13.385 5.652-23.022.004-.34.007-.683.007-1.026C107.294 12.39 97.664 0 80.367 0"/>
        <path fill="#FF0244" d="M100.818 60.167c-.58.81-1.2 1.568-1.854 2.28-5.323.821-12.754 3.169-13.3-1.533-.053-.259-.053-.535.008-.822.407-2.039 9.937.319 15.146.075"/>
        <path fill="#FF0244" d="M107.286 35.93c-.127 9.637-2.065 17.378-5.65 23.024-2.867.134-9.158-1.474-11.927-.035-.044.025-.09.046-.136.063-.118.053-.24.086-.363.127l-.047.012-.048.014-.117.03-.118.025c-.033.01-.068.016-.103.023-.036.004-.075.013-.11.023l-.189.033-.012.002c-.066.012-.134.022-.204.033h-.003c-.391.057-.785.095-1.179.122l-.013.001-.296.02h-.004c-4.265.245-10.121.385-14.048-1.466l-1.03.02c-.049 0-.096-.001-.145-.003l-.006-.005-.401.008c-.049 0-.095-.001-.144-.003-3.307 0-6.793-.476-9.935-1.523-.29-.086-.572-.203-.858-.298l-.305-.117c-.024-.01-.047-.02-.071-.028-.25-.099-.491-.21-.738-.314-.406-.188-.806-.39-1.189-.621l-.049-.03c-.18-.112-.356-.231-.529-.355-.045-.035-.089-.068-.13-.103-.018-.012-.035-.024-.05-.038l-.194-.165c-.04-.035-.077-.072-.113-.108-.117-.107-.23-.236-.319-.366-.012-.016-.023-.031-.033-.049-.992-1.134.398-4.316.942-5.24l.045-.109c-1.004-3.222-.458-5.13-.458-5.13 1.51.377 2.728 1.857 2.728 1.857 1.057-1.303 3.345-1.877 4.94-1.952-.023-2.459.513-2.952.513-2.952 4.164 1.331.97 3.505 5.486.008.38 7.026 2.337 19.495 12.397 16.444 8.863-2.69 7.217-19.972 6.931-26.465 6.253-1.369 13.508-.049 17.282 5.586-.127 9.637-1.513-2.259 0 0"/>
        <path fill="#FFEDCA" d="M107.375 49.555c-.181.403-.385.783-.615 1.133-.2.307-.416.592-.645.858-.47.545-.998 1.01-1.57 1.402-4.313 2.981-11.065 1.967-13.683 2.21-.361.033-.927.068-1.648.102-.144.008-.296.014-.454.021-.72.033-1.567.066-2.49.098-4.572.16-11.12.315-14.65.392-1.524.035-2.485.054-2.485.054-.048 0-.095-.002-.144-.004-.042 0-.084-.001-.125-.003-3.961-.089-7.371-.718-9.899-1.548-1.594-.526-2.838-1.132-3.65-1.734-.283-.211-.513-.422-.689-.63-.069-.083-.13-.165-.182-.244-.023-.036-.042-.069-.061-.103-.977-1.783.985-5.011 1.084-5.173l.002-.004v-.002l.001-.001c-1.014-3.236-.464-5.15-.464-5.15 1.509.375 2.727 1.855 2.727 1.855.217-.268.49-.5.795-.698.255-.169.531-.313.819-.44.311-.14.635-.255.952-.35.534-.164 1.051-.272 1.463-.344.543-.092.91-.12.91-.12-.022-2.458.738-3.46.738-3.46 1.09.349 2.025 2.874 2.417 2.851.31-.016.8-.91 4.544-3.603.263-.19.541-.386.837-.595.726-.507 1.554-1.071 2.503-1.696l.383-.25c.205-.135.413-.269.621-.401.806-.514 1.635-1.017 2.482-1.5.383-.22.77-.435 1.161-.645.637-.344 1.285-.674 1.94-.987.318-.152.636-.3.956-.443.571-.256 1.15-.5 1.73-.728.783-.306 1.575-.585 2.376-.83.862-.265 1.73-.491 2.608-.672.003-.002.008-.002.013-.002.061-.014.124-.026.185-.038 1.324-.265 2.661-.424 4.003-.455l.244-.007c.936-.012 1.874.037 2.812.16 1.295.164 2.59.463 3.875.918 2.74.968 4.882 2.938 6.414 5.36.503.794.94 1.638 1.31 2.51.15.35.287.704.414 1.063.587 1.638.949 3.351 1.085 5.018.21 2.536-.105 4.963-.95 6.855"/>
        <path fill="#FFD67B" d="M106.76 50.688c-.2.307-.416.592-.645.858-4.028 4.674-12.289 3.337-15.253 3.612-.361.033-.927.068-1.648.102-.144.008-.296.014-.454.021-.72.033-1.567.066-2.491.098-4.57.16-11.118.315-14.65.392-1.523.035-2.483.054-2.483.054-.05 0-.096-.002-.145-.004-.042 0-.084-.001-.125-.003-3.962-.089-7.371-.718-9.899-1.548-1.594-.526-2.838-1.132-3.65-1.734-.283-.211-.513-.422-.689-.63-.069-.083-.13-.165-.182-.244-.524-1.827 1.065-5.408 1.065-5.408-1.015-3.235-.272-4.504-.272-4.504 1.51.377 2.728 1.857 2.728 1.857.217-.268.489-.5.795-.699.254-.169.531-.313.818-.44.312-.14.635-.254.952-.35.534-.164 1.051-.272 1.464-.343.543-.092.91-.12.91-.12-.023-2.459.66-3.45.66-3.45 1.09.35 2.103 2.863 2.494 2.84.31-.015.8-.909 4.544-3.602.263-.19.542-.387.837-.596.726-.507 1.555-1.07 2.503-1.696.126-.081.253-.165.383-.25.206-.134.413-.269.622-.4.806-.514 1.634-1.018 2.482-1.502.383-.22.769-.433 1.16-.644.946-.508 1.913-.989 2.897-1.43.571-.255 1.149-.5 1.73-.728.783-.306 1.575-.585 2.376-.83.926-.284 1.862-.524 2.806-.712 1.404-.28 2.823-.442 4.246-.461.937-.012 1.875.036 2.813.16 1.295.163 2.59.463 3.874.917 2.74.968 4.883 2.938 6.414 5.36.402.635.763 1.3 1.079 1.988 2.094 4.914 2.096 10.76-.066 14.07"/>
        <path fill="#F3BE65" d="M111.46 51.501c0 6.269-6.035 8.88-14.099 10.388-7.063 1.322-10.343.375-10.739-1.442-.054-.257-.052-.532.006-.821.464-2.321 8.934-1.16 14.272-1.799 5.338-.639 8.063-2.554 8.412-6.385.348-3.83-.985-6.442-.985-6.442l-.054-2.623-.006-.278s3.192 3.134 3.192 9.402"/>
        <path fill="#FFD67B" d="M110.241 50.108c0 6.269-6.12 9.219-14.184 10.727-4.703.88-9.083.9-9.434-.388-.054-.257-.053-.532.005-.821.465-2.321 8.934-1.16 14.272-1.799 5.338-.639 8.064-2.554 8.412-6.385.348-3.83-.986-6.442-.986-6.442l-.054-2.623c.09.15.178.309.269.48.832 1.563 1.7 3.98 1.7 7.251"/>
        <path fill="#FFD67B" d="M110.705 51.53c0 6.268-5.977 7.807-14.04 9.315-4.704.881-8.25.405-9.863-.314-.006-.166.009-.338.043-.513.465-2.321 8.935-1.16 14.272-1.799 5.338-.64 8.064-2.555 8.412-6.385.348-3.83-1.15-6.939-1.15-6.939l-.11-2.777c2.008 2.057 2.436 6.074 2.436 9.412"/>
        <path fill="#F3BE65" d="M73.4 41.17c-.888-2.249-2.077-3.532-3.027-4.25.263-.19.541-.386.837-.595 1.73 2.046 2.19 4.844 2.19 4.844M77.206 39.602c-1.021-2.59-2.38-4.106-3.493-4.973l.383-.25c.205-.135.412-.269.621-.401 1.964 2.42 2.49 5.624 2.49 5.624M81.095 37.746c-1.15-2.912-2.723-4.463-3.896-5.269.383-.22.77-.434 1.161-.644 2.164 2.446 2.735 5.913 2.735 5.913M86.619 37.305c-1.605-4.06-3.868-6.007-5.362-6.902.57-.256 1.148-.5 1.73-.728 2.83 3.013 3.606 7.468 3.632 7.63M93.048 38.263c-2.353-5.959-5.79-8.448-7.685-9.418.925-.284 1.862-.524 2.805-.712 3.807 3.95 4.844 9.914 4.88 10.13M97.61 37.94c-1.048-5.667-3.493-8.749-5.195-10.269.936-.012 1.874.037 2.812.16 2.55 4.573 2.383 10.108 2.383 10.108M68.866 55.818c-7.33-.166-12.767-2.172-14.238-3.91l.8-.77s.015.407 1.06.609c1.044.203.015-2.09.609-2.917.595-.827 1.93-1.436 3.162-.275s1.458 5.81 8.333 5.333l.274 1.93z"/>
        <path fill="#F3BE65" d="M106.76 50.688c-.2.307-.416.592-.645.858-4.028 4.674-12.289 3.337-15.253 3.612-.361.033-.927.068-1.648.102-.144.008-.296.014-.454.021-.72.033-1.567.066-2.491.098-4.57.16-11.118.315-14.65.392-1.523.035-2.483.054-2.483.054-.05 0-.096-.002-.145-.004-.042 0-.084-.001-.125-.003-3.962-.089-7.371-.718-9.899-1.548.843.076 5.603.486 9.08.249 3.83-.261 13.098-8.663 20.06-7.226 6.962 1.436 21.843-3.57 17.58-12.798-.062-.13-.12-.26-.171-.387 3.336 5.271 3.789 12.682 1.244 16.58"/>
        <path fill="#F3BE65" d="M86.82 55.379c-6.543.23-17.133.446-17.133.446-.05 0-.096-.002-.145-.004-1.707-1.295-1.648-4.024.305-5.199 1.2-.723 2.816-1.318 4.756-1.153 4.439.378 5.222 4.062 9.108 4.846 1.692.342 2.608.703 3.11 1.064"/>
        <path fill="#F3BE65" d="M88.76 55.281c-.72.033-1.567.066-2.491.098-4.57.16-11.118.315-14.65.392-2.073-1.165-2.144-4.185-.06-5.438 1.2-.723 2.816-1.318 4.756-1.155 4.438.378 5.221 4.064 9.109 4.848 1.989.4 2.906.833 3.336 1.255"/>
        <path fill="#FFEDCA" d="M88.034 56.347c.012.146-.103.279-.327.395-.535.282-1.69.474-3.22.542-1.008.047-2.181.037-3.443-.037-2.656-.155-7.385-.038-10.36-1.459-1.672-.8-2.186-2.74-1.472-4.22.25-.521.655-.986 1.215-1.322 1.2-.723 2.816-1.318 4.757-1.154 4.438.377 5.221 4.064 9.108 4.847.12.024.235.049.348.071 3.528.768 3.338 1.634 3.394 2.337"/>
        <path fill="#FFD67B" d="M87.707 56.742c-.033.02-.068.037-.108.052l-.122.05c-.063.025-.132.048-.207.07-.05.015-.103.03-.157.044-.116.032-.243.061-.381.087l-.132.026c-.314.058-.672.105-1.07.142l-.462.038c-.1.007-.2.014-.303.019l-.278.014c-1.008.047-2.181.036-3.443-.037-2.656-.155-7.385-.038-10.36-1.459-1.672-.8-2.186-2.74-1.472-4.22.233-.307.533-.58.896-.8 1.201-.723 2.817-1.317 4.757-1.154 4.439.377 5.222 4.064 9.108 4.848l.348.07c.197.045.384.088.557.13 2.766.69 2.792 1.441 2.829 2.08"/>
        <path fill="#F3BE65" d="M106.97 44.507c0 2.854-.318 5.204-.856 7.04-4.027 4.673-12.287 3.336-15.252 3.61-.362.034-.928.069-1.648.104.01-.378.155-.754.306-1.047.48-.914 5.657-1.131 5.354-1.828-.306-.697-2.61-1.088-2.61-5.702 0-.096 0-.192.003-.286.113-3.535 2.896-6.417 6.414-6.763 3.317-.325 8.29-.002 8.29 4.872"/>
        <path fill="#FFEDCA" d="M108.384 44.508c0 .195-.004.386-.007.577-.003.188-.011.376-.021.56-.273 5.551-2.503 9.048-4.378 10.298-.177.117-.358.216-.542.298-.046.017-.088.035-.134.053-.067.025-.134.046-.201.066-.078.022-.153.043-.23.058-.011.003-.022.003-.026.003-.6.127-1.245.216-1.928.283-.014 0-.028.004-.043.004-2.169.202-4.703.163-7.329.163-.704 0-1.249-.074-1.666-.195-1.653-.478-1.596-1.462-.945-2.46.654-1.002 5.658-1.133 5.354-1.83-.304-.698-2.612-1.088-2.612-5.704 0-.096.004-.192.007-.283.11-3.537 2.892-6.419 6.409-6.762 1.682-.167 3.78-.167 5.443.506h.004c.435.177.842.397 1.203.673.099.078.195.159.287.244.078.07.152.141.222.22.071.074.142.155.206.236.06.078.12.157.173.238.01.014.021.028.028.042.043.064.082.128.121.191.074.128.141.262.202.404.039.085.074.17.102.258.007.011.01.018.01.025.04.106.075.216.103.33.032.113.057.226.082.343l.003.021c.015.067.025.138.036.21.01.07.02.144.028.219.025.226.039.463.039.711"/>
        <path fill="#FFD67B" d="M108.384 44.508c0 .195-.004.386-.007.577-.003.188-.011.376-.021.56-.273 5.551-2.503 9.048-4.378 10.298-.177.117-.358.216-.542.298-.046.017-.088.035-.134.053-.067.025-.134.046-.201.066-.078.022-.153.043-.23.058-.011.003-.022.003-.026.003-.148.042.436.021.188.057-.637.099-1.352.173-2.116.226-.014 0-.028.004-.043.004-2.279.163-4.971.163-7.329.163-.704 0-1.249-.074-1.666-.195-1.179-.556-.878-1.646-.531-2.312.481-.91 5.655-1.129 5.354-1.827-.307-.697-2.612-1.086-2.612-5.7 0-.095.004-.194.008-.286.11-3.537 2.891-6.415 6.408-6.766 1.543-.148 3.44-.159 5.03.358h.003c.435.177.842.397 1.203.673.099.078.195.159.287.244.078.07.152.141.222.22.071.074.142.155.206.236.06.078.12.157.173.238.01.014.021.028.028.042.043.064.082.128.121.191.074.128.141.262.202.404.039.085.074.17.102.258.007.011.01.018.01.025.04.106.075.216.103.33.032.113.057.226.082.343l.003.021c.015.067.025.138.036.21.01.07.02.144.028.219.025.226.039.463.039.711"/>
        <path fill="#F3BE65" d="M55.317 52.536c-.283-.211-.513-.422-.689-.629-.099-.119-.18-.234-.243-.348-.977-1.783.985-5.011 1.084-5.173-.063.16-1.269 3.218-.04 4.751.38.477.254.958-.112 1.399M55.755 45.552s-.5-2.33-.305-3.504c0 0 1.045.195 1.741 1.436 0 0-1.261 1.48-1.436 2.068M63.588 38.347s-.522 1.85-.414 2.874c0 0 1.458-.327 2.198-.262 0 0-.87-1.828-1.784-2.612"/>
        <path fill="#894D16" d="M55.435 49.016s-.001-.164.087-.387c.024-.054.046-.117.082-.175.032-.061.072-.123.119-.184.043-.063.101-.118.157-.177.062-.053.124-.109.196-.154.072-.043.143-.088.224-.114.076-.034.156-.053.235-.065.077-.018.155-.016.226-.014.036.002.07 0 .103.006l.094.022c.06.014.114.024.159.046.045.02.083.04.114.056.062.034.094.055.094.055s-.042.007-.109.013c-.034.003-.074.007-.119.008-.044 0-.095.016-.147.021-.053.007-.109.016-.166.034-.057.015-.116.027-.174.053l-.088.032-.087.043c-.059.025-.114.062-.17.097-.058.032-.108.078-.163.115-.05.045-.105.083-.15.13-.05.043-.095.087-.138.131-.045.043-.084.087-.123.126l-.256.282M59.238 47.415s.025-.043.084-.11c.03-.03.067-.072.115-.109.047-.04.104-.082.17-.12.066-.04.14-.08.224-.11.083-.032.173-.063.27-.078.095-.022.196-.026.299-.033.102.004.207.007.31.024.1.025.205.035.298.075.094.036.19.066.272.114.084.043.165.088.237.135.07.05.135.1.193.147.06.043.109.092.15.137.043.043.077.083.106.115.057.066.087.105.087.105s-.049-.016-.128-.049c-.082-.029-.186-.088-.32-.138-.065-.025-.136-.053-.209-.087-.074-.028-.155-.05-.234-.082-.078-.035-.167-.044-.25-.072-.084-.03-.172-.036-.258-.056-.087-.017-.175-.02-.26-.03-.087.003-.173-.013-.255-.001-.083.004-.162.012-.239.023-.075.013-.148.027-.215.043-.266.068-.447.157-.447.157M57.79 48.95c-.118.099-.14.274-.053.4.176.257.564.644.837.564.273-.08.37-.902.271-1.094-.099-.192-.625-.233-1.055.13"/>
        <path fill="#894D16" d="M58.879 50.79L58.431 49.746 58.591 49.678 59.039 50.722z"/>
        <path fill="#894D16" d="M57.725 50.387s.126.123.358.251c.116.064.26.127.429.162.084.013.175.028.27.014.016-.002.014 0 .045-.006l.031-.01c.021-.006.04-.01.063-.02.046-.024.102-.049.135-.079.077-.058.14-.124.196-.193.059-.067.106-.14.15-.21.088-.141.156-.279.207-.4.102-.241.142-.411.142-.411l-.063.101c-.038.066-.099.155-.167.264-.07.108-.152.232-.246.36-.046.063-.097.126-.15.186-.053.062-.11.119-.173.164-.031.028-.057.036-.084.056-.015.009-.039.013-.058.02l-.03.01c.01-.002-.014.001-.019.001-.073.012-.15.009-.226.002-.15-.02-.292-.061-.412-.102-.12-.042-.22-.08-.29-.112l-.108-.048"/>
        <path fill="#F3BE65" d="M92.371 29.445l-.783 22.897s-4.406 2.482-5.113 2.177c-.707-.305-2.749-.697-2.749-.697s10.521-22.36-3.425-22.977c.317-.151.635-.3.956-.442.57-.256 1.148-.5 1.73-.728.782-.306 1.575-.585 2.375-.83.862-.265 1.73-.492 2.608-.672.003-.002.008-.002.013-.002 2.204-.291 3.878-.486 4.188-.493l.2 1.767z"/>
        <path fill="#FF0244" d="M106.732 26.05c-5.674-.023-11.348-.262-17.023.098.262 2.525.388 5.433.388 8.754 0 9.571-1.245 16.24-3.622 19.617 0 0 .34.134.943.486.085.05.355.32.355.32s.316.532.257 1.063c.401.19.73 1.943.73 1.943s1.535-.23 1.748-.188c2.049-.133 4.288-.068 6.09-.133 2.117-.074 3.896-.139 5.838-.383 2.841-5.595 4.857-13.901 4.857-22.725 0-3.152-.19-6.104-.56-8.853"/>
        <path fill="#894D16" d="M54.817 36.248L55.048 36.777 54.406 38.784 55.729 38.207 56.019 38.874 53.603 39.926 53.373 39.397 54.014 37.39 52.784 37.927 52.492 37.255zM58.467 29.667L58.526 30.242 57.308 31.96 58.743 31.811 58.819 32.534 56.198 32.807 56.137 32.233 57.356 30.514 56.022 30.653 55.946 29.924zM53.976 23.576L54.022 24.015 53.092 25.326 54.188 25.212 54.245 25.764 52.245 25.972 52.199 25.534 53.129 24.222 52.11 24.328 52.052 23.772zM59.147 17.677L59.068 17.996 58.086 18.68 58.882 18.876 58.784 19.278 57.329 18.919 57.408 18.6 58.39 17.916 57.65 17.734 57.75 17.33zM53.588 14.607L53.693 14.918 53.234 16.024 54.01 15.76 54.143 16.152 52.725 16.632 52.619 16.321 53.079 15.216 52.357 15.46 52.224 15.066z"/>
    </g>
</svg>
