<svg xmlns="http://www.w3.org/2000/svg" xmlns:xlink="http://www.w3.org/1999/xlink" width="793" height="453" viewBox="0 0 793 453">
    <defs>
        <path id="prefix__a" d="M0 0.136L793 0.136 793 232.136 0 232.136z"/>
        <path id="prefix__c" d="M0 0.119L804 0.119 804 195.119 0 195.119z"/>
        <path id="prefix__e" d="M0.139 0.33L44.663 0.33 44.663 49.94 0.139 49.94z"/>
    </defs>
    <g fill="none" fill-rule="evenodd">
        <path fill="#E6FAFF" d="M384.58 52c-2.715-1.717-1.677-4.314 1.189-6.03 2.457-1.717 7.818-1.868 10.274-3.24 2.456-1.375.41-5.498 3.276-6.87 2.867-1.03 6.962 1.714 8.598 3.09 2.869-3.435 1.638-12.021 8.192-13.738 6.959-1.717 12.692 5.838 15.149 9.958 2.456-3.778 5.125-12.793 10.855-13.138 9.01-.686 14.122 9.706 13.303 14.514 6.963-4.465 7.78 6.524 6.963 9.96 4.094-2.404 10.384 3.433 6.292 5.494H384.58z" transform="translate(-2)"/>
        <path fill="#9C6F58" d="M232.055 123.132c-1.97 17.604-1.516 34.364 1.911 51.702 1.379 6.984 2.532 13.957 2.969 21.073.6 9.75-.076 19.606-.344 29.36-.809 29.55-1.724 59.093-2.701 88.638-.091 2.752 4.178 2.746 4.268 0 .962-29.127 1.859-58.256 2.665-87.386.474-17.085.974-33.637-2.285-50.491-1.35-6.98-2.722-13.913-3.291-21.013-.856-10.62-.108-21.319 1.076-31.883.306-2.732-3.967-2.703-4.268 0" transform="translate(-2)"/>
        <path fill="#2F6A7B" d="M265.664 312.537c4.286-7.665 11.809-23.266 22.853-21.992 8.91 1.153 18.61 14.636 22.023 22.219l-44.876-.227z" transform="translate(-2)"/>
        <path fill="#F1C4AF" d="M360.545 289.335c0 7.952-6.443 14.398-14.392 14.398-7.951 0-14.396-6.446-14.396-14.398 0-7.95 6.445-14.395 14.396-14.395 7.949 0 14.392 6.445 14.392 14.395" transform="translate(-2)"/>
        <path fill="#845541" d="M335.841 297.864c7.467 14.456 26.317 6.011 29.304-1.672 3.202-7.684-3.465-11.133-2.095-20.166-2.775.212-3.436 1.81-3.436 1.81s-1.883-3.223 1.274-6.935c-10.199-.312-8.548 9.495-8.76 16.964-.183 4.157-3.335 10.76-16.287 9.999" transform="translate(-2)"/>
        <path fill="#F1C4AF" d="M340.298 278.254c-1.712-3.543 1.387-7.126 3.81-2.436" transform="translate(-2)"/>
        <path fill="#92D5E1" d="M383.436 289.335S342.31 304.73 275.658 304.73c-66.654 0-104.362-15.394-104.362-15.394s-16.025 79.57 104.405 79.57c123.705 0 107.735-79.57 107.735-79.57" transform="translate(-2)"/>
        <path fill="#FEF2D3" d="M232.76 133.55s-65.869 11.1-70.137 67.448c-2.932 38.693 28.731 72.192 73.403 76.838 0 0-44.378-59.316-3.266-144.285" transform="translate(-2)"/>
        <path fill="#78BAC1" d="M277.336 326.61c-17.695-.154-30.932-1.452-40.806-2.656-9.877-1.24-16.405-2.457-20.76-3.22-4.342-.85-6.513-1.268-7.593-1.514l-1.08-.232c-5.952-1.17-11.13-2.348-15.55-3.43-4.424-1.066-8.092-2.044-11.02-2.85-5.858-1.603-8.761-2.506-8.847-2.288-.08.205 2.683 1.547 8.448 3.569 2.88 1.017 6.512 2.199 10.915 3.465 4.398 1.282 9.568 2.65 15.528 3.998l1.09.234c1.085.248 3.273.67 7.647 1.525 4.387.771 10.963 1.995 20.91 3.244 9.946 1.213 23.277 2.52 41.104 2.676 17.83.034 31.18-1.149 41.13-2.363 9.957-1.197 16.537-2.43 20.915-3.257 2.195-.39 3.834-.715 5.055-1.003 1.226-.27 2.042-.448 2.586-.569l1.089-.238 4.323-1.018c1.382-.378 2.717-.744 4.008-1.095 2.573-.725 4.978-1.339 7.164-2.024 4.358-1.42 8.015-2.51 10.869-3.598 5.719-2.146 8.527-3.33 8.45-3.546-.076-.214-3.037.54-8.861 2.268-2.907.879-6.602 1.766-10.986 2.986-2.197.586-4.61 1.102-7.187 1.731l-4.01.954c-1.392.285-2.83.579-4.316.881l-1.08.237c-.54.12-1.35.296-2.563.563-1.21.286-2.837.609-5.014.994-4.342.822-10.868 2.045-20.746 3.233-9.87 1.203-23.115 2.378-40.812 2.344M278.178 350.212c-15.957.072-27.904-1.02-36.812-2.05-8.913-1.067-14.803-2.149-18.731-2.829-3.915-.76-5.875-1.133-6.847-1.355l-.975-.208c-10.737-2.098-18.68-4.207-23.962-5.653-5.284-1.45-7.903-2.266-7.988-2.049-.085.205 2.392 1.46 7.581 3.33 5.188 1.863 13.085 4.38 23.844 6.837l.983.21c.982.224 2.957.6 6.907 1.368 3.962.686 9.902 1.776 18.89 2.852 8.985 1.04 21.031 2.14 37.129 2.068 16.096-.178 28.132-1.468 37.09-2.746 4.494-.56 8.192-1.33 11.296-1.827 3.094-.565 5.546-1.13 7.52-1.524l2.6-.542 1.94-.475c1.1-.268 1.832-.449 2.322-.568l.976-.238c1.335-.352 2.626-.694 3.879-1.023l3.588-1.09c2.304-.72 4.462-1.324 6.414-2.01 3.896-1.397 7.168-2.473 9.708-3.543 5.098-2.102 7.594-3.263 7.51-3.476-.082-.212-2.743.522-7.955 2.21-2.6.862-5.918 1.735-9.84 2.934-1.966.586-4.133 1.094-6.443 1.718l-3.593.949c-1.249.285-2.54.58-3.874.883l-.969.237c-.482.12-1.21.296-2.298.563-.543.134-1.18.29-1.92.47-.747.157-1.601.334-2.577.537-1.954.39-4.383.95-7.446 1.509-3.077.493-6.739 1.255-11.192 1.81-8.874 1.266-20.8 2.545-36.755 2.721" transform="translate(-2)"/>
        <path fill="#F3D0BB" d="M307.207 342.195c-2.623.394-6.98 1.226-7.535 3.81-.519 2.411-3.234 4.212-3.22 1.752-.303-10.103 4.686-10.188 11.863-14.464 8.888-5.3 14.92-12.455 21.838-35.592 2.385-8.964 16.017-8.266 11.883 5.807-3.98 13.533-21.193 36.634-34.829 38.687" transform="translate(-2)"/>
        <path fill="#F3D0BB" d="M304.25 341.055c-.184 1.022-1.771 4.205-1.432 4.929 1.444 2.618 4.889-3.128 4.601-5.415l-3.17.486z" transform="translate(-2)"/>
        <path fill="#D29C87" d="M348.459 293.23c.616-.28 1.077-.695 1.354-1.174.272-.5.302-.976.253-1.378-.128-.811-.531-1.203-.743-1.447-.48-.468-.51-.429-.502-.439-1.55-.97-2.541-.712-2.516-.636-.029.143.886.165 2.132 1.149-.007.007.024-.022.422.368.178.198.49.523.572 1.094.04.273.008.642-.175.973-.193.339-.56.683-1.062.907-.505.24-.956.223-1.428.189-.444-.035-.829-.088-1.136-.187-.631-.16-.994-.393-1.235-.539-.222-.169-.34-.248-.385-.301l-.05-.05c-.602-.492-.89-1.033-1.073-1.39-.18-.366-.248-.565-.31-.559-.054.005-.1.232-.015.667.094.425.315 1.094.96 1.752l.062.057c.055.063.19.16.457.357.28.173.712.442 1.419.624.35.107.773.169 1.26.208.254 0 .486.052.807.01.313-.02.62-.124.932-.255" transform="translate(-2)"/>
        <path fill="#ACEAF1" d="M202.567 311.196c-4.261-1.022-6.409-1.474-7.454-1.801l-1.055-.289c-5.838-1.424-5.936-1.152-.168.618l1.061.292c1.052.326 3.203.781 7.478 1.807l8.597 1.796c5.94 1.012 5.994.73.129-.626l-8.588-1.797zM223.114 315.052c-1.187-.14-1.772-.239-2.077-.242l-.3-.017c-1.663.088-1.623.38-.043.64l.29.013c.29.002.873.102 2.038.24l2.339.358c1.643.06 1.664-.23.093-.635l-2.34-.357zM280.553 318.817l-7.77.025c-.947.002-1.735.004-2.391.007-.656-.027-1.18-.05-1.6-.065l-1.68-.07c-9.212-.207-9.247.08-.02.639l1.682.069c.421.019.946.04 1.607.067.656-.003 1.446-.005 2.395-.007 1.896-.006 4.424-.013 7.793-.025l7.784-.393c.947-.048 1.734-.09 2.393-.12.655-.066 1.18-.12 1.598-.16l1.677-.169c9.183-1.093 9.125-1.377-.057-.639l-1.673.168c-.419.04-.941.093-1.593.16l-2.386.121-7.76.392M354.057 311.434l-5.265.673c-3.589.635-3.567.923.075.635l5.283-.675 5.255-.83c3.574-.743 3.523-1.028-.1-.63l-5.248.827zM367.969 308.692c-1.3.297-1.29.269-1.29.269-.827.27-.916.57.094.632 0 0 .018.026 1.346-.277l1.31-.331c.848-.401.781-.682-.159-.62l-1.301.327zM368.11 304.488l-2.148.375c-1.445.43-1.422.717.096.634l2.176-.38 2.147-.374c1.443-.431 1.422-.72-.095-.634l-2.177.38zM224.655 336.991c-3.771-.613-6.599-1.076-8.72-1.42-1.064-.174-1.945-.319-2.682-.438-.728-.157-1.313-.284-1.778-.383l-1.867-.41c-10.268-2.062-10.36-1.786-.131.629l1.871.408 1.786.385c.738.122 1.625.267 2.69.44l8.743 1.425c3.805.44 6.658.773 8.798 1.02 1.071.126 1.962.23 2.704.315.745.06 1.344.108 1.82.143l1.911.143c10.485.617 10.485.327.053-.636l-1.909-.145-1.814-.141-2.698-.314c-2.136-.248-4.98-.58-8.777-1.02M253.502 338.915h-1.599c-1.095.176-1.095.465 0 .643H255.101c1.095-.178 1.095-.467 0-.643h-1.599zM195.597 330.903l-1.587-.5-.164-.052-.098.062-.125.078c-.044.043-.077.057-.125.12-.046.064-.084.136-.11.2-.018.086-.01.197.014.276.032.058.072.11.116.154.16.126.279.136.373.145.197.009.29-.066.284-.117-.003-.063-.07-.114-.17-.207-.048-.041-.11-.11-.114-.147.033-.018-.024.027-.079.035.018 0 .002.01.009.014.082.015.145.073.117.067l.052-.014.045-.033-.263.014 1.65.522c.873.293 1.326.316 1.544.386l.22.048c1.253.092 1.298-.192.139-.623l-.22-.05c-.209-.068-.671-.094-1.508-.378M273.416 343.322c-3.234.05-4.856.132-5.66.063l-.806-.037c-4.428-.04-4.488.245-.022.638l.813.04c.818.067 2.446-.016 5.703-.065 3.247-.204 4.873-.281 5.681-.363l.809-.07c4.428-.54 4.399-.826-.05-.636l-.808.067c-.808.083-2.427.158-5.66.363M345.264 335.552c-2.914.516-4.364.834-5.102.893l-.733.093c-3.997.69-3.994.982.088.637l.739-.096c.746-.06 2.202-.38 5.137-.9 2.903-.646 4.36-.951 5.08-1.138l.722-.174c3.92-1.139 3.844-1.419-.15-.624l-.72.176c-.718.186-2.168.49-5.06 1.133M352.482 328.259l-3.683.842c-2.486.748-2.433 1.03.141.623l3.697-.844 3.655-1.037c2.455-.887 2.349-1.157-.185-.613l-3.625 1.029zM282.667 363.496l-2.232.063c-.647.018-1.202-.026-1.676-.031l-1.202-.034c-.327-.03-.59-.057-.8-.076l-.839-.08c-1.162-.03-2.016-.197-2.6-.22-.583-.041-.883-.033-.894.025-.014.055.263.162.83.31.572.131 1.426.401 2.596.522l.857.08c.212.02.479.045.814.079.334.009.733.019 1.218.034.482.006 1.044.048 1.699.031l2.261-.063c1.708-.12 2.987-.218 3.94-.344.957-.1 1.59-.182 2.014-.247l.845-.12c4.598-.885 4.535-1.168-.09-.635l-.84.12c-.422.063-1.052.148-2 .246-.945.123-2.212.224-3.901.34M300.383 361.87l-1.229.259c-.803.349-.717.625.139.625l1.194-.255 1.199-.116c.809-.254.844-.544-.038-.638l-1.265.124z" transform="translate(-2)"/>
        <path fill="#F3E3BD" d="M232.76 133.55s-91.428 67.556 3.266 144.286c0 0-44.378-59.316-3.266-144.285" transform="translate(-2)"/>
        <g transform="translate(-2) translate(2 338.864)">
            <mask id="prefix__b" fill="#fff">
                <use xlink:href="#prefix__a"/>
            </mask>
            <path fill="#B6F6EB" d="M793 1.348c-27.847 1.233-81.335-1.385-140.126.465-27.803.875-80.449 6.783-109.843 5.548-44.865-1.847-86.637-6.164-131.502-6.78-51.057-1.233-95.921 8.63-146.975 4.933-44.866-3.084-78.903-7.4-125.314-4.317C99.016 4.279 40.224 9.957 0 3.792v228.344h793V1.348z" mask="url(#prefix__b)"/>
        </g>
        <g transform="translate(-2) translate(0 375.88)">
            <mask id="prefix__d" fill="#fff">
                <use xlink:href="#prefix__c"/>
            </mask>
            <path fill="#C1E6F5" d="M0 7.126c28.233 1.233 82.463-1.385 142.07.466 28.188.874 81.564 6.783 111.367 5.548 45.487-1.848 87.838-6.165 133.326-6.78 51.764-1.234 97.251 8.63 149.013 4.932 45.489-3.084 79.998-13.7 127.053-10.617C703.61 3.757 763.218 15.737 804 9.57v185.55H0V7.125z" mask="url(#prefix__d)"/>
            <path fill="#242424" d="M2 49.119H795V77.119H2z" mask="url(#prefix__d)"/>
            <text fill="#FFF" font-family="SFCompactText-Regular, SF Compact Text" font-size="10" mask="url(#prefix__d)">
                <tspan x="40" y="67.119">@2020 ShopMedia All rights reserved</tspan>
            </text>
        </g>
        <path fill="#E6FAFF" d="M249.328 39.275c3.56-2.224 2.198-5.59-1.562-7.813-3.223-2.227-10.256-2.421-13.48-4.2-3.221-1.781-.535-7.122-4.299-8.903-3.76-1.332-9.132 2.226-11.278 4.008-3.762-4.451-2.15-15.576-10.746-17.802-9.132-2.225-16.651 7.566-19.876 12.905-3.222-4.895-6.722-16.577-14.24-17.024-11.822-.889-18.529 12.575-17.455 18.804-9.132-5.783-10.205 8.455-9.132 12.906-5.372-3.115-13.625 4.448-8.256 7.119h110.324z" transform="translate(-2)"/>
        <g transform="translate(-2) translate(563.91 14.002)">
            <mask id="prefix__f" fill="#fff">
                <use xlink:href="#prefix__e"/>
            </mask>
            <path fill="#F2C534" d="M44.663 25.134c0 13.7-9.966 24.806-22.262 24.806C10.106 49.94.14 38.833.14 25.134.139 11.435 10.106.33 22.4.33c12.296 0 22.262 11.106 22.262 24.805" mask="url(#prefix__f)"/>
        </g>
        <path fill="#E18D1D" d="M605.842 37.996c0 10.225-7.438 18.514-16.616 18.514-9.176 0-16.616-8.29-16.616-18.514 0-10.226 7.44-18.515 16.616-18.515 9.178 0 16.616 8.289 16.616 18.515" transform="translate(-2)"/>
        <path fill="#E18D1D" d="M602.948 41.733c0 10.224-7.438 18.514-16.616 18.514-9.176 0-16.616-8.29-16.616-18.514 0-10.227 7.44-18.515 16.616-18.515 9.178 0 16.616 8.288 16.616 18.515" transform="translate(-2)"/>
        <path fill="#E18D1D" d="M601.051 37.996c0 10.225-7.439 18.514-16.615 18.514-9.178 0-16.616-8.29-16.616-18.514 0-10.226 7.438-18.515 16.616-18.515 9.176 0 16.615 8.289 16.615 18.515" transform="translate(-2)"/>
        <path fill="#E6FAFF" d="M321.568 164.827c-1.808-1.13-1.116-2.838.792-3.967 1.638-1.13 5.21-1.23 6.845-2.132 1.635-.905.272-3.617 2.182-4.52 1.91-.679 4.638 1.13 5.727 2.034 1.91-2.26 1.09-7.91 5.456-9.038 4.636-1.13 8.454 3.839 10.092 6.55 1.637-2.484 3.414-8.416 7.23-8.643 6.003-.45 9.407 6.387 8.862 9.549 4.638-2.938 5.183 4.292 4.638 6.553 2.726-1.583 6.917 2.258 4.192 3.614h-56.016zM679.33 110.336c1.017-.635.628-1.596-.446-2.23-.918-.635-2.925-.69-3.844-1.198-.92-.508-.154-2.033-1.227-2.54-1.072-.381-2.606.636-3.218 1.144-1.074-1.27-.614-4.445-3.066-5.079-2.607-.635-4.752 2.158-5.672 3.681-.92-1.397-1.92-4.73-4.064-4.858-3.373-.253-5.285 3.59-4.98 5.366-2.606-1.65-2.911 2.412-2.606 3.682-1.532-.888-3.887 1.27-2.355 2.032h31.478z" transform="translate(-2)"/>
    </g>
</svg>
