<svg xmlns="http://www.w3.org/2000/svg" width="14" height="11" viewBox="0 0 14 11">
    <path fill="#FFF" stroke="#FFF" stroke-width=".599" d="M11.853 1h-9.73C1.503 1 1 1.537 1 2.198v7.185c0 .66.504 1.198 1.123 1.198h9.73c.62 0 1.123-.537 1.123-1.198V2.198c0-.66-.504-1.198-1.123-1.198zm0 .798c.051 0 .1.012.144.031L6.988 6.46 1.979 1.83c.045-.02.093-.03.144-.03h9.73zm0 7.984h-9.73c-.207 0-.375-.179-.375-.399v-6.71L6.743 7.29c.07.065.158.097.245.097s.175-.032.245-.097l4.995-4.617v6.71c0 .22-.168.4-.375.4z"/>
</svg>
