<svg xmlns="http://www.w3.org/2000/svg" width="12" height="8" viewBox="0 0 12 8">
    <g fill="#FF0244" fill-rule="evenodd">
        <path d="M5.991 2.41c-.901 0-1.634.714-1.634 1.594 0 .88.733 1.595 1.634 1.595.902 0 1.635-.715 1.635-1.595S6.893 2.41 5.99 2.41z"/>
        <path fill-rule="nonzero" d="M5.991.017C3.268.017.942 1.67 0 4.004c.942 2.334 3.268 3.988 5.991 3.988 2.727 0 5.05-1.654 5.992-3.988C11.041 1.67 8.718.017 5.991.017zm0 6.646c-1.503 0-2.723-1.191-2.723-2.659 0-1.467 1.22-2.658 2.723-2.658 1.504 0 2.724 1.19 2.724 2.658S7.495 6.663 5.99 6.663z"/>
    </g>
</svg>
