<svg xmlns="http://www.w3.org/2000/svg" width="14" height="11" viewBox="0 0 14 11">
    <g fill="#FFF" fill-rule="evenodd">
        <path stroke="#FFF" stroke-width=".5" d="M10.604 10.052H1.372C.615 10.052 0 9.432 0 8.67V2.387c0-.762.615-1.382 1.372-1.382h2.994c.207 0 .375.17.375.377 0 .208-.168.377-.375.377H1.372c-.344 0-.623.282-.623.628V8.67c0 .346.28.628.623.628h9.232c.344 0 .624-.282.624-.628V2.387c0-.346-.28-.628-.624-.628H7.61c-.207 0-.375-.169-.375-.377s.168-.377.375-.377h2.994c.757 0 1.372.62 1.372 1.382V8.67c0 .762-.615 1.382-1.372 1.382z" transform="translate(1)"/>
        <path fill-rule="nonzero" d="M7.11 2.764H4.866c-.481 0-.873-.394-.873-.88V.88c0-.485.392-.88.873-.88h2.246c.481 0 .873.395.873.88v1.005c0 .485-.392.88-.873.88zM4.866.754c-.069 0-.124.056-.124.126v1.005c0 .07.055.125.124.125h2.246c.069 0 .124-.056.124-.125V.88c0-.07-.055-.126-.124-.126H4.865zM3.743 6.031c-.688 0-1.248-.564-1.248-1.256 0-.693.56-1.257 1.248-1.257.687 0 1.247.564 1.247 1.257 0 .692-.56 1.256-1.247 1.256zm0-1.759c-.275 0-.5.226-.5.503s.225.502.5.502c.274 0 .498-.225.498-.502s-.224-.503-.498-.503z" transform="translate(1)"/>
        <path d="M5.614 8.544c-.207 0-.374-.169-.374-.377v-.251c0-.346-.28-.628-.624-.628H2.869c-.344 0-.623.282-.623.628v.251c0 .208-.168.377-.375.377-.206 0-.374-.169-.374-.377v-.251c0-.762.615-1.382 1.372-1.382h1.747c.757 0 1.372.62 1.372 1.382v.251c0 .208-.168.377-.374.377zM10.105 4.523H7.36c-.206 0-.374-.168-.374-.377 0-.208.168-.376.374-.376h2.745c.206 0 .374.168.374.376 0 .209-.168.377-.374.377zM10.105 6.534H7.36c-.206 0-.374-.17-.374-.377 0-.208.168-.377.374-.377h2.745c.206 0 .374.169.374.377s-.168.377-.374.377zM10.105 8.544H7.36c-.206 0-.374-.169-.374-.377s.168-.377.374-.377h2.745c.206 0 .374.17.374.377 0 .208-.168.377-.374.377z" transform="translate(1)"/>
    </g>
</svg>
