<svg xmlns="http://www.w3.org/2000/svg" width="12" height="15" viewBox="0 0 12 15">
    <g fill="#FFF" fill-rule="evenodd">
        <path fill-rule="nonzero" d="M10.933 5.464h-.58V3.98C10.353 1.786 8.396 0 5.988 0 3.58 0 1.623 1.786 1.623 3.977v1.484h-.577c-.57 0-1.033.422-1.033.942v7.027c0 .519.463.941 1.033.941h9.89c.57 0 1.034-.422 1.034-.941V6.403c-.004-.517-.467-.939-1.037-.939zM2.936 3.977c0-1.534 1.368-2.78 3.052-2.78S9.04 2.443 9.04 3.977v1.481H2.936V3.977zm7.714 9.198H1.326V6.66h9.327v6.514h-.003z"/>
        <path d="M5.988 12.28c.364 0 .657-.267.657-.598v-1.543c0-.331-.293-.598-.657-.598-.364 0-.657.267-.657.598v1.543c0 .328.293.598.657.598z"/>
    </g>
</svg>
